
<svg width="1004" height="1460" viewBox="0 0 1004 1460" version="1.1" xmlns="http://www.w3.org/2000/svg" xmlns:xlink="http://www.w3.org/1999/xlink">
<title>Group</title>
<desc>Created using Figma</desc>
<g id="Canvas" transform="matrix(4 0 0 4 -992 536)">
<g id="Group">
<g id="Vector 2">
<use xlink:href="#path0_stroke" transform="translate(260 -6)" fill="#FFFFFF"/>
</g>
<g id="Ellipse 2">
<use xlink:href="#path1_fill" transform="translate(406 -70)" fill="#FFFFFF"/>
</g>
<g id="Vector">
<use xlink:href="#path2_stroke" transform="translate(371 -133)" fill="#FFFFFF"/>
</g>
<g id="Vector">
<use xlink:href="#path3_stroke" transform="matrix(6.12323e-17 1 -1 6.12323e-17 489 -6)" fill="#FFFFFF"/>
</g>
<g id="Ellipse">
<mask id="mask0_outline_ins">
<use xlink:href="#path4_fill" fill="white" transform="translate(248 -134)"/>
</mask>
<g mask="url(#mask0_outline_ins)">
<use xlink:href="#path5_stroke_2x" transform="translate(248 -134)" fill="#FFFFFF"/>
</g>
</g>
<g id="Rectangle">
<use xlink:href="#path6_fill" transform="translate(248 -6)" fill="#FFFFFF"/>
</g>
</g>
</g>
<defs>
<path id="path0_stroke" d="M 0 114L -11.4929 113.597L -11.5 113.798L -11.5 114L 0 114ZM 111 225L 111.311 236.496L 122.5 236.193L 122.5 225L 111 225ZM 11.4929 114.403C 12.0997 97.1116 17.9753 70.9326 33.273 49.4131C 48.1836 28.4382 72.2304 11.5 111 11.5L 111 -11.5C 64.1696 -11.5 33.3831 9.56182 14.527 36.0869C -3.94192 62.0674 -10.7663 92.8884 -11.4929 113.597L 11.4929 114.403ZM 110.689 213.504C 94.0801 213.953 68.9438 209.418 48.2977 194.709C 28.2701 180.441 11.5 155.966 11.5 114L -11.5 114C -11.5 163.234 8.7299 194.759 34.9523 213.441C 60.5562 231.682 90.9199 237.047 111.311 236.496L 110.689 213.504ZM 99.5 112.5L 99.5 225L 122.5 225L 122.5 112.5L 99.5 112.5Z"/>
<path id="path1_fill" d="M 29 14.5C 29 22.5081 22.5081 29 14.5 29C 6.49187 29 0 22.5081 0 14.5C 0 6.49187 6.49187 0 14.5 0C 22.5081 0 29 6.49187 29 14.5Z"/>
<path id="path2_stroke" d="M -11.5 0L -11.5 138.5L 11.5 138.5L 11.5 0L -11.5 0Z"/>
<path id="path3_stroke" d="M -11.5 0L -11.5 118L 11.5 118L 11.5 0L -11.5 0Z"/>
<path id="path4_fill" d="M 251 125.5C 251 194.812 194.812 251 125.5 251C 56.1883 251 0 194.812 0 125.5C 0 56.1883 56.1883 0 125.5 0C 194.812 0 251 56.1883 251 125.5Z"/>
<path id="path5_stroke_2x" d="M 228 125.5C 228 182.109 182.109 228 125.5 228L 125.5 274C 207.514 274 274 207.514 274 125.5L 228 125.5ZM 125.5 228C 68.8908 228 23 182.109 23 125.5L -23 125.5C -23 207.514 43.4857 274 125.5 274L 125.5 228ZM 23 125.5C 23 68.8908 68.8908 23 125.5 23L 125.5 -23C 43.4857 -23 -23 43.4857 -23 125.5L 23 125.5ZM 125.5 23C 182.109 23 228 68.8908 228 125.5L 274 125.5C 274 43.4857 207.514 -23 125.5 -23L 125.5 23Z"/>
<path id="path6_fill" d="M 0 0L 19 0L 19 117L 0 117L 0 0Z"/>
</defs>
</svg>
